<svg class="icon" width="64px" height="64.00px" viewBox="0 0 1024 1024" version="1.1" xmlns="http://www.w3.org/2000/svg"><path d="M233.43559111 446.71886222v360.08391111h172.94222222V610.10375111c0-6.99050667 5.67978667-12.65208889 12.67029334-12.65208889h193.11274666c7.00871111 0 12.67029333 5.66158222 12.67029334 12.65208889v196.69902222h154.73777778V445.55377778l-272.3384889-214.86705778-273.79484444 216.01393778z m-54.61333333 43.08992l-44.78293333 35.31662223a18.20444445 18.20444445 0 0 1-25.55904-3.02193778l-11.26855112-14.29048889a18.20444445 18.20444445 0 0 1 3.02193778-25.55904l395.71000889-312.22442667a18.20444445 18.20444445 0 0 1 22.57351111 0l395.71000889 312.20622222a18.20444445 18.20444445 0 0 1 3.02193778 25.57724445l-11.28675556 14.29048889a18.20444445 18.20444445 0 0 1-25.55904 3.02193778l-46.22108444-36.46350223v332.77724445a39.97696 39.97696 0 0 1-39.97696 39.97696H218.79921778a39.97696 39.97696 0 0 1-39.97696-39.97696V489.80878222z m282.16888889 307.89176889h109.22666666v-145.63555556h-109.22666666v145.63555556z" fill="currentColor" /></svg>